<?xml version="1.0" encoding="utf-8"?>
<!-- Svg Vector Icons : http://www.onlinewebfonts.com/icon -->
<!DOCTYPE svg PUBLIC "-//W3C//DTD SVG 1.1//EN" "http://www.w3.org/Graphics/SVG/1.1/DTD/svg11.dtd">
<svg version="1.1" xmlns="http://www.w3.org/2000/svg" xmlns:xlink="http://www.w3.org/1999/xlink" x="0px" y="0px" viewBox="0 0 256 256" enable-background="new 0 0 256 256" xml:space="preserve">
<metadata> Svg Vector Icons : http://www.onlinewebfonts.com/icon </metadata>
<g><g><g><path fill="#000000" d="M118.9,10.2C103.7,11.4,89.7,15.3,76,22c-12,5.9-20.6,12-30.4,21.5c-10.1,9.8-17.4,19.9-23.6,32.6c-5.8,11.9-9.4,23.6-11.4,37.4c-0.8,5.4-0.8,23.6,0,29.1c3.3,22.9,12.1,43.4,26.1,60.4c32.6,39.6,86.6,53.7,134.2,35.1c30.5-11.9,55.2-36.7,67.2-67.3c4.9-12.6,7.4-24.7,7.9-38.8c0.9-27-7.3-53-23.6-74.8C199.8,27.2,164,9.5,127,9.9C123.6,10,119.9,10.1,118.9,10.2z M196.2,128v50.8h-68.3H59.6V128V77.2h68.3h68.3L196.2,128L196.2,128z"/><path fill="#000000" d="M70.8,90.6l0.1,2.3l28.3,18.2c15.6,10.1,28.5,18.3,28.7,18.3s13.1-8.3,28.7-18.4l28.3-18.4l0.1-2.1l0.1-2.1h-57.3H70.6L70.8,90.6z"/><path fill="#000000" d="M70.7,131.1l0,25.2l1.3-1.6c0.7-0.9,6.5-8.5,12.9-16.9l11.5-15.3l-7.7-5c-4.2-2.7-10.1-6.5-12.9-8.4l-5.2-3.4V131.1L70.7,131.1z"/><path fill="#000000" d="M172.2,114c-6.7,4.4-12.3,8.2-12.4,8.4c-0.1,0.4,22.8,31.1,24.9,33.5c0.2,0.2,0.4-10.8,0.4-24.8c0-13.9-0.1-25.2-0.3-25.2C184.6,105.9,179,109.5,172.2,114z"/><path fill="#000000" d="M91.1,148l-14.7,19.4l25.8,0.1c14.2,0,37.4,0,51.6,0l25.8-0.1l-14.4-18.9c-7.8-10.4-14.5-19.2-14.9-19.5c-0.4-0.4-3,1.1-11.5,6.6l-10.9,7.2l-11-7.2l-11-7.1L91.1,148z"/></g></g></g>
</svg>